<svg xmlns="http://www.w3.org/2000/svg" width="46.528" height="67.678" viewBox="0 0 46.528 67.678">
  <path id="Icon_awesome-lightbulb" data-name="Icon awesome-lightbulb" d="M12.7,60.057a4.231,4.231,0,0,0,.708,2.338l2.259,3.4a4.228,4.228,0,0,0,3.521,1.888h8.157a4.228,4.228,0,0,0,3.521-1.887l2.259-3.4a4.228,4.228,0,0,0,.708-2.338l.005-5.069H12.691l.007,5.069ZM0,23.264a23.134,23.134,0,0,0,5.758,15.3,37.986,37.986,0,0,1,6.9,12.088c.005.034.009.069.015.1H33.854c.005-.034.009-.067.015-.1a37.986,37.986,0,0,1,6.9-12.088A23.259,23.259,0,1,0,0,23.264ZM23.264,12.689A10.587,10.587,0,0,0,12.689,23.264a2.115,2.115,0,1,1-4.23,0,14.821,14.821,0,0,1,14.8-14.8,2.115,2.115,0,0,1,0,4.23Z" transform="translate(0 0)" fill="#fff"/>
</svg>
