<svg xmlns="http://www.w3.org/2000/svg" width="111.774" height="84.713" viewBox="0 0 111.774 84.713">
    <g id="Group_12" data-name="Group 12" transform="translate(0 0)">
    <g id="Group_5" data-name="Group 5" transform="translate(6.797 0)">
        <path id="Path_109" data-name="Path 109" d="M98.28,147.34c-13.052,0-25.33-1.325-34.57-3.732-9.363-2.439-14.52-5.715-14.52-9.224s5.157-6.786,14.52-9.224c9.24-2.407,21.518-3.732,34.57-3.732s25.33,1.325,34.57,3.732c9.363,2.439,14.52,5.715,14.52,9.224s-5.157,6.786-14.52,9.224c-9.24,2.407-21.518,3.732-34.57,3.732Zm0-25.36c-12.956,0-25.131,1.312-34.281,3.7-9.027,2.351-14,5.444-14,8.708s4.971,6.357,14,8.708c9.15,2.383,21.325,3.7,34.281,3.7s25.131-1.312,34.281-3.7c9.027-2.351,14-5.444,14-8.708s-4.972-6.357-14-8.708C123.411,123.292,111.236,121.979,98.28,121.979Z" transform="translate(-49.19 -92.071)" fill="#61dafb"/>
        <path id="Path_110" data-name="Path 110" d="M205.741,84.625c-4.906,0-11.021-2.276-17.788-6.69-9.283-6.055-18.742-15.432-26.634-26.4S148.038,29.3,146.146,19.817c-1.918-9.606-.006-16.271,5.383-18.768s13.537-.493,22.943,5.643c9.283,6.055,18.742,15.432,26.634,26.4S214.387,55.33,216.279,64.81c1.918,9.606.006,16.271-5.383,18.769a12.164,12.164,0,0,1-5.155,1.047ZM156.71.782a11.069,11.069,0,0,0-4.691.948c-5.012,2.322-6.754,8.7-4.905,17.963,1.874,9.387,7.22,20.555,15.055,31.446s17.211,20.191,26.4,26.187c9.069,5.916,16.823,7.895,21.835,5.572s6.754-8.7,4.905-17.963c-1.874-9.387-7.22-20.555-15.055-31.446S183.046,13.3,173.854,7.3C167.262,3,161.365.782,156.71.782Z" transform="translate(-132.123 -0.001)" fill="#61dafb"/>
        <path id="Path_111" data-name="Path 111" d="M156.684,84.624a12.16,12.16,0,0,1-5.155-1.047c-5.389-2.5-7.3-9.163-5.383-18.768,1.892-9.48,7.281-20.743,15.174-31.715s17.351-20.349,26.634-26.4C197.36.554,205.508-1.45,210.9,1.047s7.3,9.162,5.383,18.768C214.387,29.3,209,40.558,201.106,51.53s-17.351,20.349-26.634,26.4c-6.766,4.414-12.882,6.69-17.788,6.69ZM205.715.78C201.06.78,195.164,3,188.571,7.3c-9.192,6-18.569,15.3-26.4,26.187s-13.181,22.059-15.055,31.446c-1.849,9.261-.107,15.64,4.905,17.963a11.074,11.074,0,0,0,4.691.948c4.655,0,10.551-2.22,17.143-6.52,9.192-6,18.569-15.3,26.4-26.187s13.181-22.059,15.055-31.446c1.849-9.261.107-15.64-4.905-17.963a11.073,11.073,0,0,0-4.691-.948Z" transform="translate(-132.123 0)" fill="#61dafb"/>
        <circle id="Ellipse_17" data-name="Ellipse 17" cx="6.189" cy="6.189" r="6.189" transform="translate(42.901 36.123)" fill="#61dafb"/>
    </g>
    <g id="Group_6" data-name="Group 6" transform="translate(94.724 65.729)">
        <path id="Path_112" data-name="Path 112" d="M508.459,323.18c-.117-.2-.621.014-.714-.165s.377-.449.644-1.068c.048-.112.353-.815.127-1.032-.427-.412-2.382,1.287-3.066.731a9.134,9.134,0,0,0-.709-.761c-.181-.157-.29-.228-.4-.2-.15.037-.162.238-.323.633-.241.592-.384.557-.525,1.029-.1.351-.081.555-.2.595-.174.056-.334-.316-.554-.283s-.361.467-.4.792a3.039,3.039,0,0,0,.267,1.433,3.6,3.6,0,0,1-.1,2.146l-3.078,8.673c.68-1.78,2.647-6.659,3.474-8.471a2.147,2.147,0,0,1,1.043-1.264c.521-.2,1.237-.081,2.149-.3.107-.026.4-.1.439-.275.031-.144-.143-.224-.116-.359.036-.181.378-.183.8-.391a2.487,2.487,0,0,0,.64-.472C507.9,324.124,508.614,323.442,508.459,323.18Z" transform="translate(-493.931 -316.941)" fill="#f2f2f2"/>
        <path id="Path_113" data-name="Path 113" d="M462.068,367.549c-.13,0-.172.309-.287.3s-.112-.314-.338-.624c-.041-.056-.3-.408-.47-.36-.325.091-.056,1.54-.526,1.716a5.212,5.212,0,0,0-.578.129c-.129.043-.2.077-.213.136-.025.085.07.148.218.341.221.289.162.349.354.555.142.152.249.2.233.271-.023.1-.251.073-.3.19s.125.312.272.427a1.73,1.73,0,0,0,.78.282,2.049,2.049,0,0,1,1.025.666l3.369,4.013c-.677-.847-2.5-3.221-3.155-4.149a1.223,1.223,0,0,1-.319-.877c.051-.314.317-.63.472-1.141.018-.06.067-.227-.008-.295s-.151.006-.21-.046c-.078-.07.019-.238.038-.5a1.417,1.417,0,0,0-.047-.45C462.371,368.094,462.241,367.548,462.068,367.549Z" transform="translate(-459.651 -356.744)" fill="#f2f2f2"/>
        <path id="Path_114" data-name="Path 114" d="M495.45,357.051l-.078-.7.036-.053a1.3,1.3,0,0,0,.251-.713c0-.036,0-.072,0-.109a1.1,1.1,0,0,1,.079-.539c.053-.118.2-.391.426-.357a.254.254,0,0,1,.141.069l.016-.025a.771.771,0,0,1,.178-.2.9.9,0,0,0,.149-.151c.029-.036.052-.068.071-.095a.329.329,0,0,1,.267-.175.351.351,0,0,1,.267.2,1.69,1.69,0,0,1,.155.306.521.521,0,0,0,.026.06c.046.068.42,0,.561-.019.316-.053.59-.1.7.1.081.143.021.331-.184.576a1.141,1.141,0,0,1-.192.179.235.235,0,0,1,.113.147h0c.043.17-.1.34-.434.506a1.165,1.165,0,0,1-.347.124,1.367,1.367,0,0,1-.195.017.229.229,0,0,1-.029.1.347.347,0,0,1-.361.145,2.825,2.825,0,0,1-.51-.082,1.242,1.242,0,0,0-.322-.048c-.159.013-.282.14-.426.306Z" transform="translate(-490.435 -345.663)" fill="#f2f2f2"/>
        <path id="Path_115" data-name="Path 115" d="M477.733,329.588l-.658.253-.06-.021a1.3,1.3,0,0,0-.753-.062c-.035.009-.07.02-.1.031a1.1,1.1,0,0,1-.542.06c-.128-.021-.43-.1-.454-.322a.254.254,0,0,1,.031-.154l-.028-.009a.772.772,0,0,1-.235-.123.9.9,0,0,0-.184-.106c-.042-.019-.079-.033-.11-.044a.329.329,0,0,1-.238-.214.351.351,0,0,1,.129-.31,1.684,1.684,0,0,1,.257-.228.52.52,0,0,0,.052-.041c.054-.062-.1-.407-.16-.538-.131-.293-.245-.546-.081-.706.118-.114.315-.1.6.032a1.142,1.142,0,0,1,.222.14.234.234,0,0,1,.114-.146h0c.153-.084.355.014.6.291a1.168,1.168,0,0,1,.208.3,1.363,1.363,0,0,1,.066.184.23.23,0,0,1,.108,0c.118.029.2.133.232.312a2.824,2.824,0,0,1,.05.515,1.236,1.236,0,0,0,.035.324c.053.151.207.237.4.335Z" transform="translate(-472.355 -322.37)" fill="#f2f2f2"/>
        <path id="Path_116" data-name="Path 116" d="M495.45,311.944l-.078-.7.036-.053a1.3,1.3,0,0,0,.251-.713c0-.036,0-.072,0-.109a1.1,1.1,0,0,1,.079-.539c.053-.118.2-.391.426-.357a.254.254,0,0,1,.141.069l.016-.025a.769.769,0,0,1,.178-.2.9.9,0,0,0,.149-.151c.029-.036.052-.068.071-.095a.329.329,0,0,1,.267-.176.351.351,0,0,1,.267.2,1.689,1.689,0,0,1,.155.306.527.527,0,0,0,.026.06c.046.068.42,0,.561-.019.316-.053.59-.1.7.1.081.143.021.331-.184.576a1.141,1.141,0,0,1-.192.179.234.234,0,0,1,.113.147h0c.043.17-.1.34-.434.506a1.165,1.165,0,0,1-.347.124,1.362,1.362,0,0,1-.195.017.229.229,0,0,1-.029.1.346.346,0,0,1-.361.145,2.826,2.826,0,0,1-.51-.082,1.237,1.237,0,0,0-.322-.048c-.159.013-.282.14-.426.306Z" transform="translate(-490.435 -306.789)" fill="#f2f2f2"/>
        <path id="Path_117" data-name="Path 117" d="M488.668,326.068l-.147-.092-.036-.169.036.169-.171.02c0-.016-.012-.052-.026-.11a24.5,24.5,0,0,1-.5-2.767,28.21,28.21,0,0,1-.229-3.2c-.016-1.079.035-1.9.076-2.552.031-.5.068-.966.105-1.426a26.653,26.653,0,0,0,.122-3.669,3.4,3.4,0,0,0-.4-1.517,3.221,3.221,0,0,0-.827-.971l.216-.271a3.573,3.573,0,0,1,.915,1.075,3.723,3.723,0,0,1,.438,1.665,26.922,26.922,0,0,1-.123,3.714c-.037.458-.074.927-.1,1.42-.041.65-.091,1.46-.075,2.525a27.863,27.863,0,0,0,.226,3.162,24.114,24.114,0,0,0,.5,2.729C488.7,325.968,488.709,326,488.668,326.068Z" transform="translate(-482.937 -307.319)" fill="#f2f2f2"/>
        <path id="Path_118" data-name="Path 118" d="M473.8,296.654h-.043a1.107,1.107,0,0,1-.812-.525,2.42,2.42,0,0,1-.29-.69,4.323,4.323,0,0,1-.159-.715.7.7,0,0,1,.019-.447.528.528,0,0,1,.244-.223.2.2,0,0,1,.014-.1c.059-.144.216-.125.3-.116a.854.854,0,0,0,.154.009.435.435,0,0,0,.214-.072.963.963,0,0,1,.29-.114,1.033,1.033,0,0,1,.545.043,1.518,1.518,0,0,1,.773.753,2.645,2.645,0,0,1,.285.651.775.775,0,0,1,.039.432c-.043.165-.143.26-.4.469a4.65,4.65,0,0,1-.516.395A1.3,1.3,0,0,1,473.8,296.654Z" transform="translate(-470.703 -293.639)" fill="#f2f2f2"/>
    </g>
    <g id="Group_11" data-name="Group 11" transform="translate(5.655 42.719)">
        <g id="Group_7" data-name="Group 7" transform="translate(14.365 7.785)">
        <path id="b" d="M224.361,216.5c.576.152,1.121-.022,1.217-.388s-.292-.786-.868-.938a1.489,1.489,0,0,0-.7-.023l-2.447-.613-.263,1.155,2.44.481A1.49,1.49,0,0,0,224.361,216.5Z" transform="translate(-210.737 -210.243)" fill="#ffb6b6"/>
        <path id="Path_119" data-name="Path 119" d="M145.051,184.1s-.5.954.192,1.424,6.426,2.651,6.426,2.651l5.7,1.24.206-1.385-5.187-1.657-4.326-2.909Z" transform="translate(-144.878 -183.463)" fill="#2f2e41"/>
        </g>
        <g id="Group_8" data-name="Group 8" transform="translate(19.342 34.227)">
        <path id="Path_120" data-name="Path 120" d="M182.873,379.8l.966-.435-1.521-4.547-1.426.641Z" transform="translate(-180.892 -374.816)" fill="#ffb6b6"/>
        <path id="Path_121" data-name="Path 121" d="M191.727,393.97h0a.306.306,0,0,1-.116.415l-1.9.908a1.9,1.9,0,0,0-1.461-.62l.461,1.1-.978.468-.707-1.782s-.7-.8-.386-1.53-.091-.456-.091-.456l-.3-1.17,1.562-.534.813,1.671,1.514,1.321,1.3.016a.328.328,0,0,1,.283.194Z" transform="translate(-185.514 -388.563)" fill="#2f2e41"/>
        </g>
        <g id="Group_9" data-name="Group 9" transform="translate(0 32.958)">
        <path id="Path_122" data-name="Path 122" d="M56.861,369.534l.863.614,3.155-3.612L59.6,365.63Z" transform="translate(-54.658 -365.63)" fill="#ffb6b6"/>
        <path id="Path_123" data-name="Path 123" d="M44.9,384h0a.306.306,0,0,1-.416.109l-1.742-1.178a1.9,1.9,0,0,0-.2-1.574l-.715.953-.9-.608,1.18-1.511s.333-1.01,1.125-1.106.347-.309.347-.309l.859-.848L45.684,379l-1.031,1.546-.374,1.974.644,1.131A.328.328,0,0,1,44.9,384Z" transform="translate(-40.923 -376.227)" fill="#2f2e41"/>
        </g>
        <rect id="Rectangle_290" data-name="Rectangle 290" width="4.537" height="6.231" transform="translate(12.952 2.239)" fill="#2f2e41"/>
        <path id="Path_124" data-name="Path 124" d="M141.429,164.527l-2.464-.732-.466,1.265-.067,7.723s3.529-.8,4.328.533l.266-2.4a2.778,2.778,0,0,0,.133-2.73,8.615,8.615,0,0,0-1.423-2.222l-.575-.308.266-1.132Z" transform="translate(-124.958 -158.727)" fill="#6c63ff"/>
        <path id="Path_125" data-name="Path 125" d="M137.561,220.41l-.333,3.4,4.394.932s-.333-2.93.067-3.6Z" transform="translate(-123.92 -207.519)" fill="#ffb6b6"/>
        <path id="Path_126" data-name="Path 126" d="M85,242.211s-2.8-2.064-5.193-1.265a3.742,3.742,0,0,0-1.365,4.827l-2.23,5.293-4.994,6.991,1.4,1.665,6.592-6.858,2.131-2.93,5.393,11.452,1.665-.8L86.331,251.8,85.1,245.706l-.1-3.5Z" transform="translate(-67.031 -225.059)" fill="#2f2e41"/>
        <path id="Path_127" data-name="Path 127" d="M102.974,183.36l-3.329-1.065,3.2-8.855-.333-4.727,2.82-.8L106.9,174.9Z" transform="translate(-91.53 -162.28)" fill="#2f2e41"/>
        <path id="Path_128" data-name="Path 128" d="M157.875,174.816l-.5-.5.224-.464s1.453,1.507,1.719,1.906,2.753,10.433,2.753,10.433l-3.752,1.551.732-7.878.271-1.772a1.241,1.241,0,0,0-.128-.765l-1.317-2.509Z" transform="translate(-141.28 -167.392)" fill="#2f2e41"/>
        <circle id="Ellipse_18" data-name="Ellipse 18" cx="2.208" cy="2.208" r="2.208" transform="translate(13.162 0.755)" fill="#ffb6b6"/>
        <path id="Path_129" data-name="Path 129" d="M130.849,129.182c-.757-.505-2.113,1.518-2.528.274-.065-.194-.217.664-.272.964-.071.381.108.686,0,.754s-.421-.267-.485-.215.137.45.485.915a11.235,11.235,0,0,0,1.131,1.185c.354.388,1.008,1.107.915,1.723-.174,1.159-3,2.055-3.877,1.185-.209-.208-.25-.68-.323-1.615a16.944,16.944,0,0,1,0-2.746,7.26,7.26,0,0,1,.431-2.477,3.443,3.443,0,0,1,1.992-1.885,2.979,2.979,0,0,1,3.392,1.239c.127.284,0,.254.162,1.185.187,1.1.308,1.763.808,2.154.459.359.813.158.969.431.4.706-1.473,2.942-2.262,2.639-.475-.183-.517-1.272-.485-1.777.071-1.087.609-1.318.592-2.316a1.994,1.994,0,0,0-.646-1.615Z" transform="translate(-114.106 -127.122)" fill="#2f2e41"/>
        <g id="Group_10" data-name="Group 10" transform="translate(7.104 6.457)">
        <path id="c" d="M92.35,256.026c-.094.588.134,1.113.508,1.172s.753-.369.847-.957a1.49,1.49,0,0,0-.047-.7l.366-2.5-1.175-.147-.236,2.476A1.49,1.49,0,0,0,92.35,256.026Z" transform="translate(-92.329 -241.974)" fill="#ffb6b6"/>
        <path id="Path_130" data-name="Path 130" d="M97.925,173.958s-1-.4-1.4.333-2,6.658-2,6.658l-.666,5.793,1.4.067,1.132-5.327,2.464-4.594Z" transform="translate(-93.651 -173.849)" fill="#2f2e41"/>
        </g>
    </g>
    <path id="Path_131" data-name="Path 131" d="M111.774,429.456h0c0,.064-.072.116-.161.116H0v-.232H111.613c.089,0,.161.052.161.116Z" transform="translate(0 -344.859)" fill="#e6e6e6"/>
    </g>
</svg>
